<?xml version="1.0" standalone="no"?>
<!DOCTYPE svg PUBLIC "-//W3C//DTD SVG 20010904//EN"
 "http://www.w3.org/TR/2001/REC-SVG-20010904/DTD/svg10.dtd">
<svg version="1.0" xmlns="http://www.w3.org/2000/svg"
 width="1280.000000pt" height="1280.000000pt" viewBox="0 0 1280.000000 1280.000000"
 preserveAspectRatio="xMidYMid meet">
<metadata>
Created by potrace 1.11, written by Peter Selinger 2001-2013
</metadata>
<g transform="translate(0.000000,1280.000000) scale(0.100000,-0.100000)"
fill="#000000" stroke="none">
<path d="M4 10868 c7 -382 9 -418 17 -418 3 0 6 -6 6 -12 0 -7 4 -33 8 -58 4
-25 8 -55 9 -67 0 -13 3 -23 6 -23 3 0 7 -10 8 -22 3 -30 6 -44 21 -98 8 -25
14 -49 16 -55 1 -5 4 -17 7 -25 3 -8 16 -44 28 -80 12 -36 35 -94 51 -129 16
-35 29 -70 29 -77 0 -7 3 -14 8 -16 4 -1 27 -41 51 -88 40 -78 154 -258 171
-270 4 -3 11 -12 16 -22 26 -48 202 -233 308 -323 62 -54 243 -180 292 -205
16 -8 43 -23 59 -35 17 -11 31 -19 33 -17 1 1 37 -14 79 -34 42 -19 83 -37 92
-39 9 -2 33 -11 53 -19 21 -9 40 -16 43 -16 3 0 10 -2 17 -4 7 -2 24 -7 38
-11 14 -3 49 -12 78 -20 29 -8 67 -17 85 -19 17 -2 43 -7 57 -10 67 -16 163
-19 805 -22 728 -3 815 -5 815 -15 0 -4 15 -9 33 -12 59 -9 80 -16 161 -57
103 -51 181 -114 271 -220 79 -93 166 -295 180 -420 11 -97 12 -175 3 -187 -5
-7 -5 -14 2 -18 6 -3 7 -11 3 -17 -3 -7 -7 -25 -8 -42 -1 -17 -8 -51 -14 -76
-6 -25 -14 -56 -17 -69 -3 -13 -16 -48 -29 -76 -14 -29 -25 -57 -25 -63 0 -7
-4 -12 -8 -12 -5 0 -15 -15 -24 -32 -31 -63 -115 -157 -200 -224 -32 -25 -58
-42 -58 -37 0 4 -4 3 -8 -3 -21 -33 -209 -107 -304 -120 -29 -4 -613 -9 -1298
-10 -685 -1 -1267 -5 -1295 -9 -27 -3 -55 -11 -62 -17 -7 -6 -13 -8 -13 -5 0
8 -96 -26 -135 -47 -16 -9 -35 -16 -42 -16 -6 0 -13 -3 -15 -7 -1 -5 -23 -21
-47 -38 -58 -39 -159 -140 -199 -198 -46 -66 -99 -174 -118 -237 -43 -144 -43
-138 -43 -1088 l-1 -913 1682 4 c926 2 1703 7 1728 10 25 3 71 8 102 11 32 3
72 8 90 11 18 4 44 8 58 10 143 23 285 60 453 116 168 56 170 57 346 141 426
203 805 506 1106 883 44 55 84 103 90 107 7 5 7 8 0 8 -6 0 -5 3 1 8 17 11
135 186 197 292 77 132 187 355 187 379 0 6 5 11 10 11 6 0 10 8 10 18 0 10 5
23 11 29 6 6 11 17 12 24 2 8 8 28 14 44 6 17 15 39 19 50 4 11 8 22 9 25 1 3
4 12 8 20 13 33 59 177 63 199 3 14 7 28 10 33 3 4 7 18 10 30 9 39 12 53 14
53 1 0 3 8 5 17 2 9 8 40 15 70 6 29 14 67 16 83 3 17 8 37 11 45 3 8 7 26 8
40 1 14 7 52 13 85 58 321 60 774 5 1110 -4 22 -7 47 -8 55 -1 8 -7 40 -13 70
-6 30 -14 70 -17 89 -3 19 -8 37 -10 41 -2 3 -6 17 -8 31 -16 83 -101 361
-135 438 -9 20 -16 38 -17 41 -6 40 -167 370 -234 480 -25 41 -52 87 -60 103
-8 15 -18 27 -23 27 -4 0 -8 5 -8 10 0 10 -37 67 -51 80 -3 3 -15 22 -28 43
-12 20 -27 37 -32 37 -5 0 -9 5 -9 11 0 9 -41 66 -80 110 -8 9 -33 38 -55 65
-51 62 -303 315 -373 374 -141 119 -374 281 -532 367 -65 36 -143 77 -150 78
-3 1 -32 14 -65 29 -33 16 -91 40 -130 55 -38 16 -79 32 -90 36 -11 5 -22 9
-25 10 -3 1 -36 12 -75 24 -38 13 -83 27 -100 31 -16 5 -55 15 -87 24 -64 18
-100 26 -143 32 -16 2 -37 7 -47 10 -27 8 -60 14 -108 20 -25 2 -52 6 -60 9
-8 2 -37 7 -65 11 -27 3 -59 8 -70 10 -11 2 -38 7 -60 9 -22 3 -64 10 -94 15
-34 6 -651 10 -1649 10 l-1594 0 6 -332z"/>
<path d="M9687 10864 c-2 -2 -108 -11 -212 -19 -40 -3 -67 -7 -160 -25 -27 -5
-68 -12 -90 -15 -44 -7 -70 -13 -70 -15 0 -1 -9 -3 -20 -5 -63 -11 -98 -19
-184 -45 -52 -16 -99 -26 -103 -24 -4 3 -8 1 -8 -3 0 -5 -20 -14 -45 -21 -49
-13 -239 -86 -267 -102 -10 -5 -25 -10 -33 -10 -8 0 -15 -4 -15 -10 0 -5 -3
-9 -7 -8 -8 2 -67 -22 -107 -44 -11 -6 -53 -28 -95 -50 -105 -55 -306 -177
-346 -210 -5 -5 -44 -33 -85 -63 -41 -29 -82 -60 -90 -68 -8 -8 -34 -28 -57
-44 -23 -17 -39 -33 -36 -37 3 -3 1 -6 -5 -6 -21 0 -227 -199 -337 -325 -33
-37 -74 -84 -92 -104 -17 -19 -30 -38 -27 -42 2 -4 -2 -9 -10 -12 -7 -3 -39
-43 -71 -89 -32 -45 -74 -104 -92 -130 -18 -26 -33 -52 -33 -57 0 -5 -4 -11
-8 -13 -10 -3 -122 -195 -122 -208 0 -4 -7 -13 -15 -20 -8 -6 -14 -15 -13 -18
1 -4 -15 -40 -35 -81 -20 -40 -37 -79 -37 -87 0 -8 -4 -14 -10 -14 -5 0 -10
-7 -10 -15 0 -8 -4 -23 -10 -33 -14 -26 -53 -116 -55 -127 0 -5 -4 -17 -7 -25
-33 -82 -88 -258 -103 -330 -2 -8 -4 -16 -5 -17 -3 -3 -3 -3 -15 -58 -4 -22
-10 -47 -12 -55 -2 -8 -5 -24 -7 -35 -2 -11 -4 -20 -6 -20 -1 0 -3 -9 -4 -20
-2 -11 -6 -40 -11 -65 -13 -77 -14 -83 -25 -170 -18 -147 -24 -249 -24 -435 0
-200 8 -332 29 -460 3 -22 8 -52 11 -67 14 -93 15 -99 29 -158 1 -3 5 -25 9
-50 5 -25 11 -49 14 -54 3 -6 7 -19 8 -30 3 -32 12 -69 29 -115 8 -23 14 -42
13 -44 -3 -10 59 -190 84 -242 5 -12 10 -27 12 -35 4 -22 14 -44 78 -179 32
-68 58 -125 58 -127 0 -1 17 -31 37 -66 21 -35 38 -65 38 -68 2 -10 40 -71
108 -173 108 -163 115 -173 129 -188 7 -8 25 -30 38 -49 13 -19 27 -37 30 -40
4 -3 33 -36 65 -75 32 -38 67 -79 79 -90 12 -11 45 -46 74 -77 28 -31 52 -56
52 -54 0 1 29 -26 65 -60 36 -35 87 -80 113 -101 26 -21 49 -40 52 -43 13 -14
179 -140 184 -140 7 0 24 -12 57 -42 10 -10 21 -18 23 -18 3 0 49 -28 103 -62
54 -34 150 -88 213 -121 63 -32 120 -63 125 -67 6 -5 46 -24 90 -43 110 -49
137 -59 159 -64 11 -2 24 -7 30 -12 6 -5 22 -11 36 -14 14 -3 45 -13 70 -22
114 -42 372 -104 497 -120 18 -2 36 -6 40 -8 7 -4 53 -10 173 -23 19 -2 66 -5
103 -8 38 -2 70 -6 72 -8 10 -9 419 3 540 17 53 6 119 15 145 20 14 2 41 7 60
9 19 3 49 8 65 12 17 3 39 7 50 9 35 5 235 56 299 76 33 11 68 21 76 23 8 2
29 9 45 15 17 7 35 14 40 15 6 2 24 8 40 15 17 7 38 13 48 14 9 1 17 4 17 7 0
4 15 12 33 17 57 20 148 60 160 72 6 6 16 11 23 11 11 0 61 25 189 94 22 11
42 23 45 26 8 8 43 29 60 37 25 11 155 97 158 105 2 4 10 8 18 8 8 0 14 5 14
10 0 6 7 10 15 10 8 0 15 5 15 10 0 6 7 10 15 10 8 0 15 3 15 8 0 4 17 18 37
32 20 14 41 30 47 35 6 6 47 40 91 75 89 72 313 293 390 385 28 32 58 67 68
77 9 10 14 18 10 18 -5 1 3 10 16 20 13 11 21 20 18 20 -4 0 4 11 16 24 38 41
46 54 40 60 -4 3 -2 6 4 6 20 0 98 143 133 242 38 108 49 193 45 328 -2 69 -9
143 -15 165 -6 22 -13 48 -15 58 -16 69 -77 197 -129 271 -37 53 -98 117 -175
186 -39 34 -109 79 -115 73 -3 -3 -6 -1 -6 5 0 10 -40 28 -49 23 -2 -2 -7 1
-10 6 -8 13 -104 50 -181 70 -67 17 -280 25 -350 12 -136 -26 -283 -84 -341
-135 -8 -8 -19 -14 -23 -14 -19 0 -191 -172 -212 -212 -8 -15 -18 -28 -22 -28
-4 0 -16 -15 -27 -32 -21 -37 -201 -220 -254 -258 -18 -14 -41 -33 -49 -42 -9
-10 -20 -18 -25 -18 -5 0 -23 -11 -40 -24 -128 -95 -427 -218 -592 -243 -16
-2 -41 -6 -55 -9 -147 -26 -358 -23 -525 7 -38 7 -73 12 -77 11 -5 -1 -8 2 -8
6 0 4 -10 8 -22 8 -48 0 -278 86 -349 130 -20 13 -40 20 -43 17 -3 -4 -6 -1
-6 5 0 7 -5 12 -11 12 -12 0 -122 71 -127 82 -2 5 -10 8 -17 8 -7 0 -15 3 -17
8 -1 4 -25 25 -53 47 -75 60 -255 243 -255 260 0 3 -8 14 -17 24 -29 32 -39
45 -46 64 -3 9 -11 17 -17 17 -5 0 -10 4 -10 9 0 6 -17 38 -37 73 -21 35 -38
65 -38 68 -1 3 -15 34 -32 70 -49 107 -100 266 -118 368 -3 17 -8 47 -11 65
-3 17 -7 50 -10 72 -7 56 -7 294 0 330 3 17 8 50 11 74 7 62 45 218 61 258 8
18 12 33 9 33 -3 0 2 11 11 24 8 14 15 26 14 28 -5 9 13 58 21 58 5 0 8 3 7 8
-1 4 3 16 9 27 6 11 11 24 11 28 1 17 88 165 140 236 125 175 323 358 482 447
19 10 37 22 38 27 2 4 9 7 16 7 7 0 18 6 25 13 6 6 15 12 19 12 4 0 27 10 52
22 60 28 200 82 225 86 25 5 54 15 79 28 14 8 16 7 11 -2 -6 -8 -4 -10 6 -3
14 9 24 11 69 18 14 2 36 7 50 10 58 14 288 21 375 11 22 -3 60 -7 85 -9 25
-2 56 -6 70 -10 14 -3 36 -8 50 -10 62 -12 71 -14 200 -57 124 -41 387 -180
398 -210 2 -5 9 -9 15 -9 24 0 257 -218 257 -240 0 -7 3 -10 6 -7 4 3 20 -13
37 -36 17 -23 34 -43 39 -45 4 -2 8 -8 8 -13 0 -13 34 -53 115 -135 170 -174
397 -265 642 -258 92 2 129 7 218 30 76 19 238 98 300 147 183 143 301 324
351 538 11 44 13 263 3 324 -13 85 -70 261 -89 275 -8 6 -37 58 -46 83 -3 9
-10 17 -15 17 -5 0 -9 5 -9 10 0 6 -8 18 -17 28 -10 11 -27 32 -38 47 -29 42
-71 94 -115 145 -81 94 -90 105 -90 113 0 5 -4 5 -10 2 -5 -3 -10 -2 -10 4 0
16 -214 223 -311 301 -17 14 -41 33 -52 44 -12 10 -38 30 -57 45 -19 14 -38
30 -42 36 -4 5 -8 6 -8 2 0 -5 -7 -1 -16 8 -24 23 -191 135 -203 135 -5 0 -11
3 -13 8 -4 10 -144 92 -157 92 -6 0 -11 5 -11 10 0 6 -9 10 -20 10 -10 0 -24
8 -29 18 -6 9 -11 14 -11 10 0 -6 -126 51 -193 88 -15 8 -31 13 -36 10 -5 -4
-11 -1 -13 4 -2 6 -10 12 -18 14 -8 1 -32 10 -53 19 -36 16 -210 77 -232 82
-5 1 -17 4 -25 7 -23 9 -132 39 -160 44 -14 3 -34 8 -45 11 -11 3 -29 7 -40 9
-11 2 -30 5 -42 8 -46 12 -69 16 -108 22 -22 3 -51 8 -65 10 -14 2 -43 6 -65
9 -22 2 -49 6 -61 9 -49 10 -212 19 -387 20 -103 1 -189 1 -190 0z"/>
<path d="M1534 8193 c-80 -15 -167 -57 -205 -100 -16 -18 -32 -33 -36 -33 -9
0 -13 -7 -55 -91 -33 -66 -39 -93 -44 -190 -3 -69 11 -147 29 -165 4 -4 7 -13
7 -20 0 -21 56 -98 99 -137 62 -56 151 -96 226 -103 43 -4 1635 -4 1665 0 79
10 147 40 200 88 52 46 113 135 126 183 2 6 6 21 10 35 14 49 13 180 -2 235
-41 160 -167 278 -319 301 -89 13 -1628 11 -1701 -3z"/>
<path d="M3576 3652 c-3 -3 -6 -169 -6 -368 0 -400 -3 -381 62 -363 15 4 30 4
33 -1 3 -4 13 -7 23 -5 9 2 24 4 33 4 13 1 15 32 14 264 0 144 3 269 7 278 4
9 4 19 0 23 -3 4 -7 44 -7 89 l0 82 -77 1 c-42 1 -79 -1 -82 -4z"/>
<path d="M8220 3630 c-96 -17 -194 -91 -235 -174 -71 -148 -44 -356 58 -447
17 -16 39 -35 47 -43 47 -43 214 -71 315 -53 65 12 125 38 126 56 4 51 4 117
1 123 -2 5 -23 -3 -47 -16 -85 -48 -204 -51 -265 -7 -14 10 -38 37 -55 60 -28
40 -30 48 -30 139 0 79 4 104 20 132 25 43 61 80 80 80 7 0 15 5 17 11 5 15
123 19 163 5 56 -18 85 -31 85 -37 0 -4 8 -9 18 -11 15 -4 17 3 17 66 l-1 71
-36 18 c-20 10 -47 20 -60 23 -39 9 -181 11 -218 4z"/>
<path d="M1030 3556 c-2 -334 0 -629 4 -633 6 -6 261 -5 321 1 62 6 126 25
170 51 47 27 115 98 115 119 0 8 4 17 9 20 7 5 11 19 22 74 1 4 5 17 10 30 5
12 5 22 1 22 -4 0 -6 19 -5 42 5 94 -33 190 -100 250 -34 31 -97 66 -130 72
-12 3 -22 5 -22 7 0 1 -13 3 -30 4 -16 2 -30 4 -30 5 0 1 -75 3 -167 5 l-168
3 0 -72z m366 -94 c21 -11 46 -29 54 -39 62 -74 59 -236 -5 -303 -38 -40 -102
-63 -176 -64 l-61 0 1 157 c0 86 0 185 1 218 l0 61 73 -5 c46 -3 89 -13 113
-25z"/>
<path d="M7435 3600 c-30 -5 -30 -5 -30 -75 l0 -70 -41 -3 -41 -3 -1 -59 -1
-60 37 -1 c20 -1 39 -1 42 -1 3 0 5 -63 6 -141 1 -255 23 -275 293 -268 30 1
30 2 30 59 -1 64 -3 65 -71 61 -15 -1 -69 10 -78 16 -4 2 -6 64 -6 137 l1 133
79 1 c45 1 81 6 85 12 6 10 6 24 2 95 -1 15 -12 17 -87 17 l-85 0 2 65 c1 37
-3 71 -9 77 -13 13 -52 17 -74 6 -9 -4 -18 -4 -20 0 -2 4 -16 5 -33 2z"/>
<path d="M9930 3528 l0 -77 -42 -3 -42 -3 1 -47 c1 -27 2 -54 2 -61 1 -9 13
-12 41 -10 l40 3 1 -133 c0 -72 3 -145 5 -161 12 -71 66 -112 154 -116 25 -1
54 -3 65 -4 11 -1 27 1 36 6 9 4 19 4 23 1 13 -13 36 -11 37 3 4 61 1 104 -7
105 -5 1 -17 5 -26 10 -10 6 -19 5 -23 -1 -4 -6 -11 -8 -16 -4 -6 3 -21 7 -35
9 -14 1 -30 7 -36 13 -11 11 -18 245 -8 261 3 5 37 9 75 9 39 0 75 1 81 1 7 1
11 24 12 61 l0 60 -87 0 -86 0 1 71 c1 46 -3 72 -10 75 -7 3 -45 6 -84 7 l-72
2 0 -77z"/>
<path d="M11640 3550 c-1 -30 -1 -66 -1 -80 1 -23 -3 -25 -41 -25 l-41 0 -2
-57 c0 -31 2 -55 6 -52 4 2 10 1 13 -4 3 -5 19 -7 36 -4 29 4 38 -7 30 -43 -2
-10 -2 -126 0 -135 0 -3 2 -35 4 -72 1 -37 8 -73 14 -81 7 -7 10 -16 8 -18 -9
-9 60 -48 94 -54 44 -8 184 -10 196 -2 7 4 10 80 5 120 -1 4 -10 3 -21 -3 -14
-8 -20 -8 -20 0 0 7 -6 8 -19 0 -12 -6 -22 -6 -25 -1 -3 5 -14 7 -24 4 -35 -9
-44 21 -46 152 -2 143 -8 135 97 132 76 -2 74 -4 76 81 l1 42 -85 0 c-95 0
-87 -9 -87 93 0 53 -2 58 -19 54 -11 -3 -19 -1 -19 4 0 5 -11 4 -25 -1 -14 -5
-25 -6 -25 -2 0 4 -18 7 -39 7 l-40 0 -1 -55z"/>
<path d="M2014 3461 c-2 -3 -18 -6 -34 -7 -79 -6 -175 -89 -196 -170 -29 -110
-9 -225 51 -292 65 -73 194 -103 332 -77 35 7 65 12 66 13 1 0 11 4 22 7 45
14 48 20 49 83 1 43 -3 62 -11 62 -7 0 -13 -4 -13 -10 0 -5 -8 -10 -18 -10
-10 0 -22 -4 -28 -10 -5 -5 -18 -11 -29 -13 -11 -1 -24 -5 -30 -8 -5 -4 -20
-5 -32 -4 -13 1 -23 -1 -23 -5 0 -7 -45 -5 -91 5 -44 10 -89 63 -89 105 0 4
80 8 178 8 97 0 185 1 194 1 15 1 17 10 15 59 -2 32 -7 64 -11 70 -4 7 -5 12
-1 12 12 0 -34 76 -65 107 -51 52 -103 72 -198 77 -18 1 -35 -1 -38 -3z m105
-138 c17 -16 31 -39 33 -53 l3 -25 -102 -2 c-56 -2 -104 1 -107 5 -11 18 25
73 56 87 51 22 84 18 117 -12z"/>
<path d="M3126 3463 c-3 -4 -16 -7 -28 -9 -60 -7 -168 -78 -168 -110 0 -8 -4
-14 -9 -14 -13 0 -31 -82 -31 -145 0 -85 18 -140 61 -189 66 -74 190 -107 322
-84 28 5 58 10 65 10 6 1 12 5 12 10 0 5 4 7 9 4 5 -3 21 1 37 9 26 13 28 18
25 72 -1 32 -3 59 -4 60 -1 1 -19 -7 -39 -17 -68 -33 -169 -49 -225 -36 -36 8
-73 37 -79 62 -3 13 -10 24 -15 24 -5 0 -6 6 -3 14 4 11 43 13 194 12 119 -1
191 3 193 9 5 13 0 93 -7 122 -14 61 -81 153 -112 153 -7 0 -14 4 -14 9 0 13
-28 22 -95 27 -33 3 -65 7 -72 9 -6 2 -14 1 -17 -2z m115 -140 c11 -11 21 -26
22 -34 2 -8 6 -19 10 -26 12 -19 -3 -22 -107 -21 -76 1 -99 4 -103 16 -3 7 0
18 8 22 7 5 10 12 7 16 -8 7 26 37 52 47 29 11 91 0 111 -20z"/>
<path d="M4105 3459 c-88 -12 -123 -27 -169 -73 -42 -41 -61 -79 -72 -150 -2
-16 -6 -31 -9 -34 -2 -3 0 -13 6 -23 7 -14 6 -19 -3 -19 -8 0 -9 -3 -3 -8 6
-4 10 -17 9 -30 -2 -34 41 -114 79 -149 64 -58 160 -78 285 -59 28 4 52 12 52
17 0 5 8 9 18 9 35 0 132 125 117 150 -3 6 -2 10 4 10 19 0 8 170 -14 215 -38
78 -114 134 -192 141 -24 2 -47 5 -51 7 -4 1 -29 0 -57 -4z m106 -142 c28 -21
41 -58 44 -122 3 -69 -19 -136 -52 -154 -57 -30 -122 -11 -150 43 -18 35 -25
124 -12 170 12 43 57 89 81 83 10 -3 18 -1 18 3 0 10 48 -5 71 -23z"/>
<path d="M5350 3460 c-41 -11 -84 -37 -100 -59 -20 -29 -29 -26 -25 6 3 33 -4
55 -15 48 -5 -3 -41 -6 -79 -6 -70 -1 -71 -1 -72 -27 -1 -15 -1 -31 0 -36 1
-4 -17 8 -40 27 -55 48 -156 63 -214 32 -43 -23 -65 -40 -65 -52 0 -7 -6 -10
-13 -7 -7 2 -12 17 -11 34 l2 30 -82 0 -83 0 1 -367 1 -367 80 -1 80 0 0 45
c0 25 4 50 7 56 4 6 5 14 1 18 -8 8 -8 70 0 84 4 6 3 13 -1 16 -5 3 -7 17 -5
30 l5 25 24 -25 c76 -75 212 -78 278 -5 24 26 40 27 33 2 -10 -41 4 -45 138
-42 l30 1 0 153 c1 83 4 164 8 179 19 71 100 106 139 58 20 -25 20 -28 19
-220 0 -188 -7 -175 84 -174 41 1 77 3 79 5 2 2 6 79 8 170 3 157 5 168 28
202 18 26 33 36 58 39 70 8 82 -26 82 -243 0 -128 3 -169 13 -170 6 0 44 -1
82 -2 l71 -2 -1 200 c-1 179 -4 205 -22 246 -32 71 -87 102 -176 99 -42 -1
-102 -32 -130 -67 -23 -29 -31 -29 -46 0 -24 44 -118 81 -171 67z m-480 -130
c42 -18 61 -54 65 -126 5 -91 -17 -149 -65 -168 -19 -8 -39 -11 -45 -8 -5 3
-18 7 -28 7 -28 2 -55 35 -71 88 -8 26 -11 47 -8 47 4 0 6 18 6 39 -4 92 70
153 146 121z"/>
<path d="M6275 3459 c-75 -9 -108 -22 -155 -59 -116 -92 -125 -307 -18 -417
50 -51 118 -75 217 -76 47 0 97 3 111 6 57 13 130 38 131 45 4 39 3 65 -2 74
-4 7 -3 21 3 31 9 17 8 19 -8 12 -73 -30 -119 -46 -142 -48 -16 -2 -32 -6 -37
-8 -9 -5 -31 -4 -37 0 -2 1 -21 4 -43 5 -21 2 -41 8 -43 15 -2 6 -9 11 -16 11
-11 0 -36 53 -36 77 0 7 64 10 184 10 101 0 188 3 194 7 10 6 8 74 -4 131 -6
27 -36 79 -66 115 -22 26 -89 61 -123 64 -18 2 -36 5 -41 8 -5 2 -36 1 -69 -3z
m100 -129 c23 -19 45 -64 37 -77 -4 -6 -49 -10 -109 -10 -92 -1 -102 1 -100
17 4 28 36 70 60 79 30 12 93 7 112 -9z"/>
<path d="M8853 3458 c-2 -5 -9 -6 -14 -2 -17 10 -110 -29 -144 -61 -59 -54
-80 -108 -80 -210 0 -72 4 -99 22 -135 35 -75 97 -119 188 -137 41 -9 130 -11
130 -4 0 2 13 4 30 6 27 4 73 23 85 35 3 3 20 18 38 33 19 15 30 27 26 27 -4
0 0 8 8 18 32 37 49 157 33 232 -7 37 -44 106 -69 129 -34 31 -89 58 -135 66
-63 10 -112 12 -118 3z m70 -122 c10 10 57 -28 63 -52 3 -13 9 -24 13 -24 13
0 6 -144 -8 -170 -19 -36 -42 -60 -52 -55 -4 3 -10 1 -13 -4 -8 -12 -64 -3
-92 15 -66 44 -65 228 3 280 10 7 23 12 30 9 7 -2 15 0 19 6 4 7 10 6 18 0 7
-6 15 -8 19 -5z"/>
<path d="M9606 3462 c-4 -3 -13 -7 -21 -8 -19 -3 -79 -40 -95 -59 -20 -24 -26
-18 -22 20 l4 35 -84 0 -85 0 1 -259 c1 -143 4 -262 7 -266 11 -10 63 -12 81
-3 9 4 19 4 22 -1 7 -10 54 -2 62 10 3 5 0 9 -6 9 -6 0 -9 4 -6 8 3 5 6 73 7
152 1 133 3 146 25 181 36 58 102 70 141 27 16 -18 18 -43 21 -202 2 -99 5
-182 6 -184 3 -2 127 -5 152 -3 13 1 12 364 -1 419 -4 18 -25 51 -45 73 -31
34 -45 41 -86 45 -27 3 -54 7 -61 9 -6 2 -14 1 -17 -3z"/>
<path d="M10527 3463 c-1 0 -20 -4 -42 -8 -22 -4 -45 -8 -52 -9 -6 -1 -31 -14
-55 -29 -79 -51 -117 -132 -113 -249 6 -219 191 -311 473 -237 23 7 46 17 49
23 9 13 12 126 4 123 -3 -2 -17 -8 -31 -14 -79 -35 -178 -55 -210 -43 -3 1
-14 3 -25 5 -37 7 -62 27 -79 62 -13 28 -14 38 -5 44 7 4 90 8 184 7 93 0 176
1 183 1 11 1 13 17 8 74 -8 97 -8 97 -17 97 -4 0 -11 9 -14 21 -9 27 -63 82
-100 101 -41 21 -147 42 -158 31z m74 -127 c21 -9 52 -64 45 -81 -4 -10 -28
-14 -103 -13 -54 0 -101 3 -105 5 -9 4 17 60 37 79 21 22 85 27 126 10z"/>
<path d="M11251 3459 c-44 -9 -115 -50 -130 -76 -5 -10 -8 -1 -9 23 -1 20 -4
39 -7 42 -6 6 -148 2 -155 -4 -2 -3 -4 -121 -5 -264 0 -232 2 -259 16 -263 9
-3 23 -1 30 4 7 4 17 5 23 2 13 -9 74 -10 86 -3 5 3 12 78 14 165 3 88 6 166
7 173 4 23 59 72 82 73 37 2 51 -2 73 -22 23 -22 25 -41 27 -253 l2 -139 60 1
c33 0 70 1 83 1 l23 1 -3 203 c-3 164 -7 209 -21 242 -18 43 -75 89 -111 90
-12 1 -26 4 -32 6 -5 3 -29 2 -53 -2z"/>
<path d="M6944 3431 c-22 -13 -44 -31 -51 -40 -13 -17 -15 -13 -17 29 -1 24
-4 25 -77 28 -59 2 -79 -1 -89 -13 -7 -8 -9 -15 -4 -15 9 0 10 -358 1 -367 -3
-3 -2 -15 3 -28 5 -14 5 -26 -3 -34 -7 -7 -7 -11 -1 -11 6 0 9 -13 6 -30 -5
-33 -9 -31 93 -31 25 0 51 0 58 0 11 1 13 21 13 87 -1 47 2 88 7 91 4 2 4 10
-1 16 -14 19 -3 129 17 166 24 44 72 63 119 47 40 -13 46 -41 48 -224 0 -95 4
-175 6 -178 10 -9 63 -11 80 -2 9 4 19 4 22 0 3 -5 18 -7 33 -5 l28 5 -1 177
c-1 98 -4 195 -8 217 -10 54 -48 108 -90 128 -52 25 -142 19 -192 -13z"/>
<path d="M2326 3442 c-3 -6 1 -15 9 -22 8 -7 15 -21 15 -31 0 -11 4 -27 9 -37
8 -16 20 -45 40 -94 34 -88 63 -163 87 -228 43 -117 41 -115 101 -114 29 1 59
4 68 8 8 3 15 2 15 -3 0 -4 11 -6 24 -4 17 4 27 16 37 46 7 23 12 45 11 50 -1
4 3 7 10 7 6 0 9 3 5 6 -3 4 2 23 12 43 11 20 19 40 19 44 0 7 26 76 57 152 7
17 26 65 43 108 l31 78 -87 -3 c-82 -3 -87 -4 -90 -25 -2 -13 -8 -23 -14 -23
-6 0 -9 -3 -5 -6 3 -3 -10 -49 -30 -102 -19 -54 -36 -101 -37 -107 -1 -5 -7
-19 -13 -30 -12 -22 -13 -26 -13 -52 0 -34 -19 4 -59 117 -22 63 -49 140 -60
170 l-19 55 -80 3 c-44 1 -83 -1 -86 -6z"/>
</g>
</svg>
